<svg width="32" height="32" viewBox="0 0 32 32" fill="none" xmlns="http://www.w3.org/2000/svg">
<path d="M23 9L21.6 6.1C21.3 5.4 20.6 5 19.8 5H12.3C11.5 5 10.8 5.4 10.5 6.1L9 9H5C3.9 9 3 9.9 3 11V25C3 26.1 3.9 27 5 27H27C28.1 27 29 26.1 29 25V11C29 9.9 28.1 9 27 9H23Z" stroke="#01A35C" stroke-width="2" stroke-miterlimit="10" stroke-linejoin="round"/>
<path d="M16 23C19.3137 23 22 20.3137 22 17C22 13.6863 19.3137 11 16 11C12.6863 11 10 13.6863 10 17C10 20.3137 12.6863 23 16 23Z" stroke="#01A35C" stroke-width="2" stroke-miterlimit="10" stroke-linejoin="round"/>
<path d="M5 12H8" stroke="#01A35C" stroke-width="2" stroke-miterlimit="10" stroke-linejoin="round"/>
</svg>
