<svg width="27" height="27" viewBox="0 0 27 27" fill="none" xmlns="http://www.w3.org/2000/svg">
<g clip-path="url(#clip0_521_2)">
<path d="M13.5414 17.8723C14.1504 17.8723 14.6442 17.3786 14.6442 16.7695C14.6442 16.1605 14.1504 15.6668 13.5414 15.6668C12.9324 15.6668 12.4387 16.1605 12.4387 16.7695C12.4387 17.3786 12.9324 17.8723 13.5414 17.8723Z" fill="#94A4A4"/>
<path d="M9.64873 19.0081C9.74246 19.168 9.90787 19.2562 10.0843 19.2562C10.167 19.2562 10.2552 19.2341 10.3324 19.19L12.378 18.0101C12.6812 18.2913 13.0892 18.4677 13.5358 18.4677C13.9824 18.4677 14.3904 18.2913 14.6937 18.0101L16.7392 19.19C16.8164 19.2341 16.9046 19.2562 16.9873 19.2562C17.1582 19.2562 17.3291 19.168 17.4229 19.0081C17.5607 18.771 17.478 18.4622 17.2409 18.3244L15.1954 17.1445C15.223 17.0232 15.2395 16.8964 15.2395 16.764C15.2395 15.9976 14.7322 15.347 14.032 15.132V12.7722C14.032 12.4965 13.806 12.2705 13.5303 12.2705C13.2546 12.2705 13.0286 12.4965 13.0286 12.7722V15.132C12.3283 15.347 11.8211 15.9976 11.8211 16.764C11.8211 16.8964 11.8376 17.0232 11.8652 17.1445L9.81965 18.3244C9.59359 18.4622 9.51089 18.771 9.64873 19.0081ZM13.5413 16.0583C13.9328 16.0583 14.2471 16.3726 14.2471 16.764C14.2471 17.1555 13.9328 17.4698 13.5413 17.4698C13.1499 17.4698 12.8356 17.1555 12.8356 16.764C12.8356 16.3726 13.1499 16.0583 13.5413 16.0583Z" fill="#01A35C"/>
<path d="M8.68948 12.9542C8.96516 12.9542 9.19122 12.7281 9.19122 12.4524V11.0961C9.19122 10.9582 9.25186 10.8314 9.35662 10.7432C10.542 9.76731 11.8267 9.12222 12.0693 9.00092C12.2678 8.90167 12.4001 8.69767 12.4001 8.47161V6.56392C12.4001 6.39851 12.3174 6.23861 12.1796 6.1504C12.0693 6.07872 12.0031 5.95742 12.0031 5.82509V3.85123C12.0031 3.14549 12.5766 2.57208 13.2823 2.57208H13.7068C14.4126 2.57208 14.986 3.14549 14.986 3.85123V5.82509C14.986 5.95742 14.9198 6.07872 14.8096 6.1504C14.6717 6.24413 14.589 6.39851 14.589 6.56392V8.47161C14.589 8.69767 14.7213 8.90167 14.9198 9.00092C15.1679 9.12222 16.4526 9.76731 17.6325 10.7432C17.7373 10.8314 17.7979 10.9582 17.7979 11.0961V12.4524C17.7979 12.7281 18.024 12.9542 18.2996 12.9542C18.5753 12.9542 18.8014 12.7281 18.8014 12.4524V11.0961C18.8014 10.655 18.6084 10.247 18.2721 9.97131C17.2245 9.10568 16.0997 8.48264 15.5925 8.21799V6.79549C15.8461 6.53635 15.9895 6.18899 15.9895 5.81958V3.85123C15.9895 2.59414 14.9639 1.56861 13.7068 1.56861H13.2823C12.0252 1.56861 10.9997 2.58862 10.9997 3.85123V5.82509C10.9997 6.1945 11.143 6.54186 11.3966 6.801V8.2235C10.8894 8.48815 9.77014 9.11119 8.71705 9.97682C8.38072 10.2525 8.18774 10.666 8.18774 11.1016V12.4579C8.19326 12.7336 8.4138 12.9542 8.68948 12.9542Z" fill="#01A35C"/>
<path d="M19.5954 20.6952C19.0881 20.9599 17.9689 21.5829 16.9158 22.4485C16.5794 22.7242 16.3865 23.1377 16.3865 23.5733V24.9296C16.3865 25.2053 16.6125 25.4314 16.8882 25.4314C17.1639 25.4314 17.3899 25.2053 17.3899 24.9296V23.5733C17.3899 23.4355 17.4506 23.3087 17.5554 23.2204C18.7408 22.2445 20.0254 21.5994 20.268 21.4781C20.472 21.3789 20.5988 21.1749 20.5988 20.9488V19.0411C20.5988 18.8757 20.5161 18.7158 20.3783 18.6276C20.268 18.556 20.2019 18.4347 20.2019 18.3023V16.3285C20.2019 15.6227 20.7753 15.0493 21.481 15.0493H21.9056C22.6113 15.0493 23.1847 15.6227 23.1847 16.3285V18.3023C23.1847 18.4347 23.1186 18.556 23.0083 18.6276C22.8704 18.7214 22.7877 18.8757 22.7877 19.0411V20.9488C22.7877 21.1749 22.9146 21.3789 23.1186 21.4781C23.3667 21.5994 24.6513 22.2445 25.8312 23.2204C25.936 23.3087 25.9966 23.4355 25.9966 23.5733V24.9296C25.9966 25.2053 26.2227 25.4314 26.4984 25.4314C26.7741 25.4314 27.0001 25.2053 27.0001 24.9296V23.5733C27.0001 23.1322 26.8071 22.7242 26.4708 22.4485C25.4177 21.5829 24.2985 20.9599 23.7912 20.6952V19.2727C24.0448 19.0136 24.1882 18.6662 24.1882 18.2968V16.323C24.1882 15.0659 23.1627 14.0403 21.9056 14.0403H21.481C20.2239 14.0403 19.1984 15.0659 19.1984 16.323V18.2968C19.1984 18.6662 19.3418 19.0136 19.5954 19.2727V20.6952Z" fill="#01A35C"/>
<path d="M0.501736 25.4259C0.777415 25.4259 1.00347 25.1998 1.00347 24.9241V23.5678C1.00347 23.43 1.06412 23.3031 1.16888 23.2149C2.3543 22.239 3.63896 21.5939 3.88156 21.4726C4.08556 21.3734 4.21238 21.1694 4.21238 20.9433V19.0356C4.21238 18.8702 4.12967 18.7103 3.99183 18.6221C3.88156 18.5504 3.8154 18.4291 3.8154 18.2968V16.3229C3.8154 15.6172 4.38881 15.0438 5.09455 15.0438H5.51909C6.22483 15.0438 6.79824 15.6172 6.79824 16.3229V18.2968C6.79824 18.4291 6.73208 18.5504 6.62181 18.6221C6.48397 18.7158 6.40127 18.8702 6.40127 19.0356V20.9433C6.40127 21.1694 6.52808 21.3734 6.73208 21.4726C6.98019 21.5939 8.26486 22.239 9.44476 23.2149C9.54952 23.3031 9.61017 23.43 9.61017 23.5678V24.9241C9.61017 25.1998 9.83623 25.4259 10.1119 25.4259C10.3876 25.4259 10.6136 25.1998 10.6136 24.9241V23.5678C10.6136 23.1267 10.4207 22.7187 10.0843 22.443C9.03124 21.5774 7.91199 20.9544 7.40474 20.6897V19.2672C7.65836 19.0081 7.80172 18.6607 7.80172 18.2913V16.3174C7.80172 15.0603 6.77619 14.0348 5.51909 14.0348H5.09455C3.83745 14.0348 2.81193 15.0603 2.81193 16.3174V18.2913C2.81193 18.6607 2.95528 19.0081 3.2089 19.2672V20.6897C2.70165 20.9544 1.5824 21.5774 0.529304 22.443C0.192975 22.7187 0 23.1322 0 23.5678V24.9241C0 25.2053 0.226057 25.4259 0.501736 25.4259Z" fill="#01A35C"/>
</g>
<defs>
<clipPath id="clip0_521_2">
<rect width="27" height="27" fill="white"/>
</clipPath>
</defs>
</svg>
